<?xml version="1.0" encoding="iso-8859-1"?>
<!-- Uploaded to: SVG Repo, www.svgrepo.com, Generator: SVG Repo Mixer Tools -->
<svg height="800px" width="800px" version="1.1" id="Layer_1" xmlns="http://www.w3.org/2000/svg" xmlns:xlink="http://www.w3.org/1999/xlink" 
	 viewBox="0 0 511.999 511.999" xml:space="preserve">
<path style="fill:#507C5C;" d="M464.915,496.243H47.085C21.122,496.243,0,475.122,0,449.159V323.905
	c0-25.963,21.122-47.087,47.085-47.087h118.403c20.266,0,36.756,16.488,36.756,36.756v33.706h107.512v-33.706
	c0-20.266,16.488-36.756,36.756-36.756h118.403c25.963,0,47.085,21.122,47.085,47.087v125.255
	C512,475.122,490.878,496.243,464.915,496.243z M47.085,306.075c-9.83,0-17.828,7.999-17.828,17.829v125.255
	c0,9.83,7.997,17.828,17.828,17.828h417.83c9.83,0,17.828-7.997,17.828-17.828V323.905c0-9.83-7.997-17.829-17.828-17.829H346.512
	c-4.135,0-7.499,3.365-7.499,7.499v48.334c0,8.078-6.549,14.629-14.629,14.629H187.616c-8.079,0-14.629-6.551-14.629-14.629v-48.334
	c0-4.134-3.363-7.499-7.499-7.499H47.085z"/>
<path style="fill:#CFF09E;" d="M359.933,30.384H152.067c-7.605,0-13.771,6.166-13.771,13.771v158.579
	c0,7.605,6.166,13.771,13.771,13.771h68.008l35.925,47.593l35.925-47.593h68.008c7.605,0,13.771-6.166,13.771-13.771V44.156
	C373.704,36.55,367.538,30.384,359.933,30.384z"/>
<g>
	<path style="fill:#507C5C;" d="M256.001,278.727c-4.589,0-8.912-2.153-11.675-5.816l-31.535-41.778h-60.722
		c-15.66,0-28.4-12.74-28.4-28.4V44.156c0-15.66,12.74-28.4,28.4-28.4h207.865c15.66,0,28.4,12.74,28.4,28.4v158.577
		c0,15.66-12.74,28.4-28.4,28.4h-60.722l-31.535,41.778C264.911,276.574,260.588,278.727,256.001,278.727z M152.925,201.876h67.151
		c4.589,0,8.912,2.153,11.675,5.816l24.25,32.124l24.248-32.124c2.765-3.663,7.088-5.816,11.675-5.816h67.151V45.013H152.925
		V201.876z"/>
	<path style="fill:#507C5C;" d="M256.001,185.439c-8.079,0-14.629-6.551-14.629-14.629V84.741c0-8.078,6.549-14.629,14.629-14.629
		s14.629,6.551,14.629,14.629v86.069C270.629,178.89,264.079,185.439,256.001,185.439z"/>
	<path style="fill:#507C5C;" d="M299.035,142.404h-86.07c-8.079,0-14.629-6.551-14.629-14.629c0-8.078,6.549-14.629,14.629-14.629
		h86.07c8.079,0,14.629,6.551,14.629,14.629C313.664,135.854,307.115,142.404,299.035,142.404z"/>
	<path style="fill:#507C5C;" d="M116.663,431.056H18.651c-8.079,0-14.629-6.551-14.629-14.629c0-8.078,6.549-14.629,14.629-14.629
		h98.012c8.079,0,14.629,6.551,14.629,14.629C131.292,424.506,124.743,431.056,116.663,431.056z"/>
	<path style="fill:#507C5C;" d="M493.349,431.056h-98.012c-8.079,0-14.629-6.551-14.629-14.629c0-8.078,6.549-14.629,14.629-14.629
		h98.012c8.079,0,14.629,6.551,14.629,14.629C507.977,424.506,501.426,431.056,493.349,431.056z"/>
</g>
</svg>